<?xml version="1.0" standalone="no"?>
<!DOCTYPE svg PUBLIC "-//W3C//DTD SVG 20010904//EN"
 "http://www.w3.org/TR/2001/REC-SVG-20010904/DTD/svg10.dtd">
<svg version="1.0" xmlns="http://www.w3.org/2000/svg"
 width="1280.000000pt" height="1280.000000pt" viewBox="0 0 1280.000000 1280.000000"
 preserveAspectRatio="xMidYMid meet">
<g transform="translate(0.000000,1280.000000) scale(0.100000,-0.100000)"
fill="#000000" stroke="none">
<path d="M6210 12797 c-3 -3 -84 -10 -180 -17 -462 -30 -906 -101 -1302 -210
-1325 -363 -2473 -1120 -3337 -2200 -624 -781 -1072 -1754 -1265 -2745 -75
-387 -133 -1003 -123 -1300 35 -1042 251 -1924 683 -2787 1000 -1999 2999
-3344 5214 -3508 80 -6 192 -15 250 -20 134 -13 366 -13 500 0 58 5 170 14
250 20 1726 128 3340 973 4451 2330 823 1005 1324 2254 1419 3535 6 83 15 200
20 261 6 60 10 170 10 244 0 74 -4 184 -10 244 -5 61 -14 179 -20 261 -85
1140 -492 2262 -1165 3204 -405 568 -928 1090 -1496 1496 -790 564 -1708 944
-2659 1100 -174 28 -442 59 -660 76 -164 12 -572 24 -580 16z m440 -567 c576
-28 1070 -119 1595 -295 702 -235 1328 -586 1910 -1071 156 -130 467 -434 611
-596 806 -912 1299 -2021 1433 -3223 89 -793 12 -1610 -224 -2369 -230 -740
-596 -1411 -1111 -2031 -139 -167 -542 -570 -709 -709 -971 -805 -2069 -1253
-3330 -1357 -193 -16 -657 -16 -850 0 -1261 104 -2363 553 -3330 1357 -168
139 -571 542 -709 709 -615 742 -1016 1546 -1226 2458 -215 937 -192 1930 66
2857 334 1195 1033 2243 2022 3028 1078 856 2479 1307 3852 1242z"/>
<path d="M3483 9207 c-442 -292 -802 -536 -802 -542 0 -20 294 -450 306 -448
22 5 1603 1058 1603 1068 0 11 -292 455 -300 455 -3 0 -366 -240 -807 -533z"/>
<path d="M8340 9513 c-116 -178 -147 -231 -137 -240 7 -6 376 -248 821 -538
598 -389 811 -524 820 -515 6 6 75 109 153 228 106 164 138 220 130 228 -14
13 -1627 1064 -1633 1064 -3 0 -72 -102 -154 -227z"/>
<path d="M3973 8186 c-91 -22 -164 -65 -238 -140 -112 -113 -155 -217 -155
-371 0 -148 47 -261 150 -366 46 -46 87 -77 140 -102 378 -185 808 127 750
543 -28 206 -185 381 -390 435 -66 18 -186 18 -257 1z"/>
<path d="M8503 8186 c-128 -31 -271 -141 -331 -253 -93 -176 -87 -379 16 -539
183 -283 574 -324 813 -85 105 105 148 213 149 372 0 150 -44 256 -154 365
-133 132 -313 183 -493 140z"/>
<path d="M6185 4709 c-604 -34 -1183 -195 -1785 -495 -225 -113 -554 -301
-577 -332 -15 -18 -19 -647 -5 -656 5 -3 65 33 133 80 683 469 1325 735 2009
830 177 24 599 30 787 10 720 -76 1401 -350 2118 -850 l110 -76 3 332 c2 308
1 334 -15 346 -62 47 -371 222 -548 312 -605 305 -1187 465 -1820 500 -198 11
-208 11 -410 -1z"/>
</g>
</svg>
